<svg width="19" height="12" viewBox="0 0 19 12" fill="none" xmlns="http://www.w3.org/2000/svg">
<g id="Arrow - Left">
<path id="Arrow - Left_2" fill-rule="evenodd" clip-rule="evenodd" d="M8.09135 6.00667L8.0929 6.36077C8.10532 7.76524 8.19177 9.01832 8.34087 9.81243C8.34087 9.82675 8.50351 10.6143 8.60711 10.8765C8.76975 11.2554 9.06384 11.5771 9.43256 11.7809C9.72776 11.9263 10.0374 12.0001 10.3616 12.0001C10.6164 11.9885 11.0367 11.8629 11.3366 11.7576L11.5859 11.6641C13.2368 11.0219 16.3926 8.9235 17.6013 7.64023L17.6904 7.55053L18.0881 7.13022C18.3387 6.80858 18.4713 6.41534 18.4713 5.99235C18.4713 5.61343 18.3532 5.2345 18.117 4.92828C18.0463 4.82907 17.9325 4.70179 17.8311 4.59425L17.444 4.19745C16.112 2.87578 13.2278 1.02189 11.7329 0.407625C11.7329 0.394407 10.8039 0.0143805 10.3616 6.10352e-05H10.3026C9.62416 6.10352e-05 8.99032 0.378985 8.66615 0.991432C8.57759 1.15886 8.49265 1.48684 8.42804 1.77489L8.31191 2.31877C8.17935 3.19338 8.09135 4.53503 8.09135 6.00667ZM1.62566 4.48172C0.777935 4.48172 0.0906181 5.16136 0.0906181 5.99962C0.0906181 6.83788 0.777935 7.51752 1.62566 7.51752L5.40312 7.19037C6.06816 7.19037 6.60732 6.65833 6.60732 5.99962C6.60732 5.34201 6.06816 4.80887 5.40312 4.80887L1.62566 4.48172Z" fill="#24252C"/>
</g>
</svg>
