<svg width="13" height="10" viewBox="0 0 13 10" fill="none" xmlns="http://www.w3.org/2000/svg">
<path d="M5.807 9.63078C5.74933 9.57428 5.50275 9.36094 5.29991 9.1622C4.02424 7.99708 1.93624 4.95762 1.29891 3.36678C1.19649 3.12518 0.97974 2.51437 0.96582 2.18802C0.96582 1.8753 1.03741 1.5772 1.18257 1.29274C1.38541 0.938139 1.70457 0.653678 2.08141 0.497808C2.34291 0.397467 3.12541 0.241598 3.13933 0.241598C3.99541 0.0857282 5.38642 0 6.92358 0C8.38816 0 9.7225 0.0857282 10.5915 0.213346C10.6054 0.227959 11.5778 0.383829 11.9109 0.554311C12.5194 0.867024 12.8973 1.47784 12.8973 2.13151V2.18802C12.8823 2.61374 12.5045 3.50901 12.4906 3.50901C11.8523 5.01413 9.86667 7.98344 8.54725 9.17681C8.54725 9.17681 8.2082 9.51291 7.99642 9.65904C7.69216 9.88699 7.31533 10 6.9385 10C6.51791 10 6.12616 9.87238 5.807 9.63078" fill="#24252C"/>
</svg>
