<svg width="12" height="12" viewBox="0 0 12 12" fill="none" xmlns="http://www.w3.org/2000/svg">
<path d="M8.48803 1.50447C8.61517 1.35406 8.77243 1.23163 8.9498 1.14499C9.12717 1.05834 9.32075 1.00938 9.51821 1.00122C9.71566 0.993063 9.91266 1.02589 10.0967 1.09761C10.2806 1.16933 10.4476 1.27837 10.5868 1.41778C10.7261 1.55718 10.8346 1.7239 10.9054 1.90731C10.9763 2.09071 11.0079 2.28677 10.9983 2.483C10.9887 2.67923 10.9381 2.87132 10.8497 3.04703C10.7613 3.22274 10.637 3.37821 10.4848 3.50353L3.74561 10.2504L1 11L1.7488 8.2513L8.48803 1.50447Z" fill="white" stroke="white" stroke-width="2" stroke-linecap="round" stroke-linejoin="round"/>
</svg>
